<svg enable-background="new 0 0 24 24" height="512" viewBox="0 0 24 24" width="512" xmlns="http://www.w3.org/2000/svg" fill="#A0A0A0"><path d="m22 20h-20c-1.103 0-2-.897-2-2v-12c0-1.103.897-2 2-2h20c1.103 0 2 .897 2 2v12c0 1.103-.897 2-2 2zm-20-15c-.551 0-1 .449-1 1v12c0 .551.449 1 1 1h20c.551 0 1-.449 1-1v-12c0-.551-.449-1-1-1z"/><path d="m12 13.744c-.397 0-.794-.094-1.157-.283l-10.574-5.518c-.245-.128-.339-.43-.212-.675.128-.245.428-.34.675-.212l10.575 5.517c.435.227.953.227 1.388 0l10.575-5.517c.246-.128.547-.033.675.212.127.245.033.547-.212.675l-10.576 5.517c-.363.189-.76.284-1.157.284z"/></svg>
